<?xml version="1.0" encoding="utf-8"?>
<!-- Generator: Adobe Illustrator 15.0.0, SVG Export Plug-In . SVG Version: 6.00 Build 0)  -->
<!DOCTYPE svg PUBLIC "-//W3C//DTD SVG 1.0//EN" "http://www.w3.org/TR/2001/REC-SVG-20010904/DTD/svg10.dtd">
<svg version="1.0" id="Layer_1" xmlns="http://www.w3.org/2000/svg" xmlns:xlink="http://www.w3.org/1999/xlink" x="0px" y="0px"
	 width="60px" height="30px" viewBox="-5 10 60 30" enable-background="new -5 10 60 30" xml:space="preserve">
<circle fill="#2F1230" cx="25" cy="582.737" r="25"/>
<path fill="#FFFFFF" d="M37.216,577.537h-3.883l-4.312,11.69c-0.065,0.178-0.166,0.331-0.291,0.457
	c-0.231,0.264-0.576,0.43-0.957,0.43H15.976c-0.709,0-1.283-0.575-1.283-1.283c0-0.709,0.574-1.283,1.283-1.283h10.932l0.582-1.574
	H14.033c-0.711,0-1.283-0.573-1.283-1.282s0.572-1.283,1.283-1.283h14.4l0.557-1.502H12.785c-0.709,0-1.285-0.574-1.285-1.283
	s0.576-1.283,1.285-1.283h17.148l1.297-3.514c0.188-0.508,0.662-0.826,1.172-0.838c0.063-0.013,0.131-0.017,0.199-0.017h4.614
	c0.709,0,1.283,0.574,1.283,1.282S37.925,577.537,37.216,577.537z M18.5,591.341c1.023,0,1.85,0.829,1.85,1.852
	c0,1.021-0.826,1.85-1.85,1.85c-1.02,0-1.848-0.828-1.848-1.85C16.652,592.17,17.48,591.341,18.5,591.341z M26.466,591.341
	c1.021,0,1.849,0.829,1.849,1.852c0,1.021-0.826,1.85-1.849,1.85c-1.022,0-1.852-0.828-1.852-1.85
	C24.614,592.17,25.445,591.341,26.466,591.341z"/>
<g>
	<path fill="#94BA37" d="M29.698,10L9.654,40H-5l15.122-30H29.698z M55,10L35.012,40H20.244l15.18-30H55z"/>
</g>
</svg>
